# Blender v2.79 (sub 0) OBJ File: 'Video_test.blend'
# www.blender.org
mtllib Simple_Rubber.mtl
o Rubber_Cube
v -1.343858 -0.185622 0.433476
v -1.286582 -0.193124 0.433476
v -1.280807 -0.185593 0.451067
v -1.338270 -0.189373 0.433476
v -1.335386 -0.185613 0.442260
v -1.329922 -0.189206 0.441888
v -1.285762 -0.192113 0.442260
v -1.317246 -0.192127 0.433476
v -1.315121 -0.191144 0.441888
v -1.312243 -0.185602 0.448717
v -1.283642 -0.189348 0.448717
v -1.313629 -0.189198 0.446434
v -1.071192 0.185622 0.433476
v -1.008183 0.185593 0.451067
v -1.002895 0.193124 0.433476
v -1.062733 0.185613 0.442260
v -1.060093 0.189373 0.433476
v -1.051991 0.189206 0.441888
v -1.005502 0.189348 0.448717
v -1.039605 0.185602 0.448717
v -1.035709 0.189198 0.446434
v -1.035024 0.192127 0.433476
v -1.003561 0.192113 0.442260
v -1.034342 0.191144 0.441888
v -1.343858 -0.185622 -0.433476
v -1.280807 -0.185593 -0.451067
v -1.286582 -0.193124 -0.433476
v -1.335386 -0.185613 -0.442260
v -1.338270 -0.189373 -0.433476
v -1.329922 -0.189206 -0.441888
v -1.283642 -0.189348 -0.448717
v -1.312243 -0.185602 -0.448717
v -1.313629 -0.189198 -0.446434
v -1.317246 -0.192127 -0.433476
v -1.285762 -0.192113 -0.442260
v -1.315121 -0.191144 -0.441888
v -1.071192 0.185622 -0.433476
v -1.002895 0.193124 -0.433476
v -1.008183 0.185593 -0.451067
v -1.060093 0.189373 -0.433476
v -1.062733 0.185613 -0.442260
v -1.051991 0.189206 -0.441888
v -1.003561 0.192113 -0.442260
v -1.035024 0.192127 -0.433476
v -1.034342 0.191144 -0.441888
v -1.039605 0.185602 -0.448717
v -1.005502 0.189348 -0.448717
v -1.035709 0.189198 -0.446434
v 1.071191 -0.185622 0.433476
v 1.008183 -0.185593 0.451067
v 1.002895 -0.193124 0.433476
v 1.062733 -0.185613 0.442260
v 1.060092 -0.189373 0.433476
v 1.051991 -0.189206 0.441888
v 1.005502 -0.189348 0.448717
v 1.039605 -0.185602 0.448717
v 1.035709 -0.189198 0.446434
v 1.035024 -0.192127 0.433476
v 1.003561 -0.192113 0.442260
v 1.034342 -0.191144 0.441888
v 1.343858 0.185622 0.433476
v 1.286582 0.193124 0.433476
v 1.280807 0.185593 0.451067
v 1.338270 0.189373 0.433476
v 1.335386 0.185613 0.442260
v 1.329922 0.189206 0.441888
v 1.285762 0.192113 0.442260
v 1.317246 0.192127 0.433476
v 1.315121 0.191144 0.441888
v 1.312243 0.185602 0.448717
v 1.283642 0.189348 0.448717
v 1.313628 0.189198 0.446434
v 1.071191 -0.185622 -0.433476
v 1.002895 -0.193124 -0.433476
v 1.008183 -0.185593 -0.451067
v 1.060092 -0.189373 -0.433476
v 1.062733 -0.185613 -0.442260
v 1.051991 -0.189206 -0.441888
v 1.003561 -0.192113 -0.442260
v 1.035024 -0.192127 -0.433476
v 1.034342 -0.191144 -0.441888
v 1.039605 -0.185602 -0.448717
v 1.005502 -0.189348 -0.448717
v 1.035709 -0.189198 -0.446434
v 1.280807 0.185593 -0.451067
v 1.286582 0.193124 -0.433476
v 1.343858 0.185622 -0.433476
v 1.283642 0.189348 -0.448717
v 1.312243 0.185602 -0.448717
v 1.313628 0.189198 -0.446434
v 1.317246 0.192127 -0.433476
v 1.285762 0.192113 -0.442260
v 1.315121 0.191144 -0.441888
v 1.335386 0.185613 -0.442260
v 1.338270 0.189373 -0.433476
v 1.329922 0.189206 -0.441888
v 0.402829 0.185593 0.451067
v 0.402829 0.189529 0.448473
v 0.402829 0.193124 0.433476
v 0.402829 0.192014 0.442670
v 0.402829 -0.193124 0.433476
v 0.402829 -0.192014 0.442670
v 0.402829 -0.185593 0.451067
v 0.402829 -0.189529 0.448473
v 0.402829 0.185593 -0.451067
v 0.402829 0.189529 -0.448473
v 0.402829 0.193124 -0.433476
v 0.402829 0.192014 -0.442670
v 0.402829 -0.193124 -0.433476
v 0.402829 -0.192014 -0.442670
v 0.402829 -0.185593 -0.451067
v 0.402829 -0.189529 -0.448473
v 0.402829 -0.016609 0.451067
v 0.402829 -0.021630 0.451067
v 0.402829 -0.026651 0.451067
v 0.402829 -0.026651 -0.451067
v 0.402829 -0.016609 -0.451067
v 0.402829 -0.021630 -0.451067
v 0.402828 0.016609 -0.451067
v 0.402828 0.021630 -0.451067
v 0.402829 0.016609 0.451067
v 0.402829 0.021630 0.451067
v -1.132296 0.016609 -0.451067
v -1.195304 0.016638 -0.433476
v -1.163142 0.016732 -0.448457
v -1.128608 0.021630 -0.451067
v -1.161517 0.021674 -0.448473
v -1.191631 0.021640 -0.433476
v -1.186801 0.016752 -0.442260
v -1.182312 0.021675 -0.442670
v 1.219745 0.016638 -0.433476
v 1.156694 0.016609 -0.451067
v 1.210303 0.016516 -0.442110
v 1.223418 0.021640 -0.433476
v 1.214095 0.021598 -0.442670
v 1.160382 0.021630 -0.451067
v 1.188086 0.016500 -0.448717
v 1.193295 0.021592 -0.448473
v 1.156694 0.016609 0.451067
v 1.219745 0.016638 0.433476
v 1.187553 0.016505 0.448457
v 1.160381 0.021630 0.451067
v 1.193295 0.021592 0.448473
v 1.223418 0.021640 0.433476
v 1.211228 0.016506 0.442260
v 1.214095 0.021598 0.442670
v -1.195304 0.016638 0.433476
v -1.132296 0.016609 0.451067
v -1.185876 0.016742 0.442110
v -1.191631 0.021640 0.433476
v -1.182312 0.021675 0.442670
v -1.128609 0.021630 0.451067
v -1.163675 0.016737 0.448717
v -1.161517 0.021674 0.448473
v -1.156694 -0.016609 0.451067
v -1.219745 -0.016638 0.433476
v -1.187554 -0.016505 0.448457
v -1.160382 -0.021630 0.451067
v -1.193295 -0.021593 0.448473
v -1.223418 -0.021640 0.433476
v -1.211228 -0.016506 0.442260
v -1.214095 -0.021598 0.442670
v -1.227092 -0.026641 0.433476
v -1.217773 -0.026606 0.442670
v -1.164069 -0.026651 0.451067
v -1.196978 -0.026607 0.448473
v -1.156694 -0.016609 -0.451067
v -1.219745 -0.016638 -0.433476
v -1.160382 -0.021630 -0.451067
v -1.188086 -0.016500 -0.448717
v -1.193295 -0.021593 -0.448473
v -1.164070 -0.026651 -0.451067
v -1.196978 -0.026607 -0.448473
v -1.227092 -0.026641 -0.433476
v -1.217773 -0.026606 -0.442670
v -1.210304 -0.016516 -0.442110
v -1.223419 -0.021640 -0.433476
v -1.214095 -0.021598 -0.442670
v 1.132296 -0.016609 -0.451067
v 1.195304 -0.016638 -0.433476
v 1.187957 -0.026641 -0.433476
v 1.178634 -0.026683 -0.442670
v 1.124921 -0.026651 -0.451067
v 1.157834 -0.026689 -0.448473
v 1.163142 -0.016732 -0.448457
v 1.128608 -0.021630 -0.451067
v 1.161517 -0.021674 -0.448473
v 1.191631 -0.021640 -0.433476
v 1.186801 -0.016752 -0.442260
v 1.182312 -0.021675 -0.442670
v 1.132296 -0.016609 0.451067
v 1.195304 -0.016638 0.433476
v 1.128608 -0.021630 0.451067
v 1.163675 -0.016737 0.448717
v 1.161517 -0.021674 0.448473
v 1.124921 -0.026651 0.451067
v 1.157834 -0.026688 0.448473
v 1.187957 -0.026641 0.433476
v 1.178634 -0.026683 0.442670
v 1.185876 -0.016742 0.442110
v 1.191631 -0.021640 0.433476
v 1.182312 -0.021675 0.442670
vn 0.0000 0.0000 1.0000
vn 0.0000 0.2817 0.9595
vn -0.0338 0.2999 0.9533
vn -0.0382 0.0299 0.9988
vn -0.7572 0.5659 -0.3262
vn -0.7637 0.5469 0.3430
vn -0.5999 0.7519 0.2735
vn -0.5999 0.7519 -0.2735
vn 0.0000 -0.2817 0.9595
vn -0.0389 0.0287 0.9988
vn -0.0389 -0.2547 0.9662
vn -0.9320 -0.1548 0.3276
vn -0.3813 -0.9030 0.1977
vn -0.2523 -0.7950 0.5516
vn -0.5765 -0.1656 0.8001
vn -0.0849 -0.9940 0.0680
vn -0.0794 -0.9582 0.2749
vn -0.0169 -0.9980 0.0596
vn -0.0184 -0.9649 0.2620
vn -0.0313 -0.7493 0.6615
vn -0.1285 -0.7199 0.6821
vn -0.1795 -0.1737 0.9683
vn -0.3815 0.6095 0.6949
vn -0.1843 0.8791 0.4395
vn -0.2355 0.9635 0.1270
vn -0.1539 0.3823 0.9111
vn -0.0916 0.7841 0.6139
vn -0.0211 0.7660 0.6424
vn -0.0154 0.9666 0.2558
vn -0.0653 0.9662 0.2493
vn -0.0153 0.9982 0.0582
vn -0.0711 0.9956 0.0599
vn -0.9320 -0.1548 -0.3276
vn -0.5765 -0.1656 -0.8001
vn -0.2523 -0.7950 -0.5516
vn -0.3813 -0.9030 -0.1977
vn -0.1795 -0.1737 -0.9683
vn -0.1285 -0.7199 -0.6821
vn -0.0389 -0.2547 -0.9662
vn -0.0313 -0.7493 -0.6615
vn -0.0184 -0.9649 -0.2620
vn -0.0794 -0.9582 -0.2749
vn -0.0169 -0.9980 -0.0596
vn -0.0849 -0.9940 -0.0680
vn -0.2355 0.9635 -0.1270
vn -0.1843 0.8791 -0.4395
vn -0.3815 0.6095 -0.6949
vn -0.0711 0.9956 -0.0599
vn -0.0653 0.9662 -0.2493
vn -0.0153 0.9982 -0.0582
vn -0.0154 0.9666 -0.2558
vn -0.0211 0.7660 -0.6424
vn -0.0916 0.7841 -0.6139
vn -0.0338 0.2999 -0.9533
vn -0.1539 0.3823 -0.9111
vn 0.0000 0.9983 0.0587
vn 0.0000 0.9661 0.2581
vn 0.0000 0.7635 0.6457
vn 0.0000 -0.9983 0.0587
vn 0.0000 -0.9661 0.2581
vn 0.0000 -0.7635 0.6457
vn 0.0000 0.7635 -0.6457
vn 0.0000 0.2817 -0.9595
vn 0.0000 0.9661 -0.2581
vn 0.0000 0.9983 -0.0587
vn 0.0000 -0.9983 -0.0587
vn 0.0000 -0.9661 -0.2581
vn 0.0000 -0.7635 -0.6457
vn 0.0000 -0.2817 -0.9595
vn 0.0000 0.0000 -1.0000
vn -0.0389 0.0287 -0.9988
vn -0.0390 0.0258 -0.9989
vn -0.4580 0.3140 -0.8316
vn -0.1810 0.1134 -0.9769
vn -0.4669 0.3087 0.8286
vn -0.1802 0.1229 0.9759
vn -0.4630 0.3398 0.8186
vn -0.7602 0.5586 0.3317
vn -0.1718 0.1261 0.9770
vn -0.1718 0.1261 -0.9770
vn -0.4630 0.3398 -0.8186
vn -0.7602 0.5586 -0.3317
vn -0.0386 0.0323 0.9987
vn -0.0399 0.0303 0.9987
vn 0.0392 -0.0284 -0.9988
vn 0.0403 -0.0240 -0.9989
vn -0.7633 0.5525 0.3349
vn -0.7597 0.5538 0.3408
vn -0.7587 0.5594 -0.3337
vn -0.7533 0.5647 -0.3371
vn 0.7587 -0.5594 -0.3337
vn 0.7533 -0.5647 -0.3371
vn 0.7633 -0.5525 0.3349
vn 0.7597 -0.5538 0.3408
vn 0.0386 -0.0323 0.9987
vn 0.0389 -0.0305 0.9987
vn -0.0401 0.0356 0.9985
vn 0.0385 -0.0282 0.9988
vn -0.0385 0.0238 -0.9990
vn -0.0392 0.0284 -0.9988
vn 0.0396 -0.0264 -0.9988
vn 0.0385 -0.0282 -0.9988
vn -0.0403 0.0240 -0.9989
vn 0.0383 -0.0236 -0.9990
vn 0.0398 -0.0355 0.9986
vn 0.0399 -0.0303 0.9987
vn -0.1619 0.0956 -0.9821
vn -0.4701 0.3437 -0.8129
vn 0.4591 -0.3655 -0.8097
vn 0.4537 -0.3568 -0.8166
vn 0.7566 -0.5633 -0.3319
vn 0.1677 -0.1278 -0.9775
vn 0.1783 -0.1553 -0.9716
vn 0.1656 -0.1359 0.9768
vn 0.1739 -0.1555 0.9724
vn 0.4669 -0.3628 0.8064
vn 0.4570 -0.3385 0.8225
vn 0.7630 -0.5549 0.3315
vn -0.4646 0.3177 0.8265
vn -0.1691 0.1022 0.9803
vn -0.1656 0.1359 0.9768
vn -0.1744 0.1558 0.9723
vn -0.4669 0.3628 0.8064
vn -0.4559 0.3378 0.8234
vn -0.7621 0.5540 0.3349
vn -0.1788 0.1556 -0.9715
vn -0.1677 0.1278 -0.9775
vn -0.7557 0.5624 -0.3355
vn -0.4526 0.3562 -0.8175
vn -0.4591 0.3655 -0.8097
vn 0.1811 -0.1131 -0.9769
vn 0.1721 -0.1267 -0.9769
vn 0.1619 -0.0956 -0.9821
vn 0.4701 -0.3437 -0.8129
vn 0.4558 -0.3125 -0.8334
vn 0.7566 -0.5656 -0.3280
vn 0.7599 -0.5580 -0.3333
vn 0.4640 -0.3407 -0.8176
vn 0.1803 -0.1227 0.9759
vn 0.1691 -0.1022 0.9803
vn 0.1721 -0.1267 0.9769
vn 0.7599 -0.5580 0.3333
vn 0.7631 -0.5466 0.3449
vn 0.4647 -0.3072 0.8304
vn 0.4640 -0.3407 0.8176
vn 0.4646 -0.3177 0.8265
vn 0.5999 -0.7519 0.2735
vn 0.5999 -0.7519 -0.2735
vn 0.9320 0.1548 -0.3276
vn 0.9320 0.1548 0.3276
vn 0.0389 0.2547 -0.9662
vn 0.0153 -0.9982 -0.0582
vn 0.0153 -0.9982 0.0582
vn 0.3815 -0.6095 0.6949
vn 0.1843 -0.8791 0.4395
vn 0.2355 -0.9635 0.1270
vn 0.1539 -0.3823 0.9111
vn 0.0916 -0.7840 0.6139
vn 0.0338 -0.2999 0.9533
vn 0.0211 -0.7660 0.6425
vn 0.0154 -0.9666 0.2558
vn 0.0653 -0.9662 0.2493
vn 0.0711 -0.9956 0.0599
vn 0.3813 0.9030 0.1977
vn 0.2523 0.7950 0.5516
vn 0.5765 0.1656 0.8001
vn 0.0849 0.9940 0.0680
vn 0.0794 0.9582 0.2749
vn 0.0169 0.9981 0.0596
vn 0.0184 0.9649 0.2620
vn 0.0313 0.7493 0.6615
vn 0.1285 0.7199 0.6821
vn 0.0389 0.2547 0.9662
vn 0.1795 0.1737 0.9683
vn 0.2355 -0.9635 -0.1270
vn 0.1843 -0.8791 -0.4395
vn 0.3815 -0.6095 -0.6949
vn 0.0711 -0.9956 -0.0599
vn 0.0653 -0.9662 -0.2493
vn 0.0154 -0.9666 -0.2558
vn 0.0211 -0.7660 -0.6425
vn 0.0916 -0.7840 -0.6139
vn 0.0338 -0.2999 -0.9533
vn 0.1539 -0.3823 -0.9111
vn 0.0313 0.7493 -0.6615
vn 0.1285 0.7199 -0.6821
vn 0.1795 0.1737 -0.9683
vn 0.0184 0.9649 -0.2620
vn 0.0794 0.9582 -0.2749
vn 0.0169 0.9981 -0.0596
vn 0.0849 0.9940 -0.0680
vn 0.3813 0.9030 -0.1977
vn 0.2523 0.7950 -0.5516
vn 0.5765 0.1656 -0.8001
usemtl Rubber.002
s 1
f 122//1 97//2 14//3 152//4
f 128//5 150//6 13//7 37//8
f 103//9 115//1 165//10 3//11
f 1//12 4//13 6//14 5//15
f 4//13 8//16 9//17 6//14
f 2//18 7//19 9//17 8//16
f 7//19 11//20 12//21 9//17
f 3//11 10//22 12//21 11//20
f 10//22 5//15 6//14 12//21
f 6//14 9//17 12//21
f 13//7 16//23 18//24 17//25
f 16//23 20//26 21//27 18//24
f 14//3 19//28 21//27 20//26
f 19//28 23//29 24//30 21//27
f 15//31 22//32 24//30 23//29
f 22//32 17//25 18//24 24//30
f 18//24 21//27 24//30
f 25//33 28//34 30//35 29//36
f 28//34 32//37 33//38 30//35
f 26//39 31//40 33//38 32//37
f 31//40 35//41 36//42 33//38
f 27//43 34//44 36//42 35//41
f 34//44 29//36 30//35 36//42
f 30//35 33//38 36//42
f 37//8 40//45 42//46 41//47
f 40//45 44//48 45//49 42//46
f 38//50 43//51 45//49 44//48
f 43//51 47//52 48//53 45//49
f 39//54 46//55 48//53 47//52
f 46//55 41//47 42//46 48//53
f 42//46 45//49 48//53
f 99//56 15//31 23//29 100//57
f 100//57 23//29 19//28 98//58
f 2//18 101//59 102//60 7//19
f 11//20 104//61 103//9 3//11
f 7//19 102//60 104//61 11//20
f 47//52 106//62 105//63 39//54
f 43//51 108//64 106//62 47//52
f 38//50 107//65 108//64 43//51
f 109//66 27//43 35//41 110//67
f 110//67 35//41 31//40 112//68
f 112//68 31//40 26//39 111//69
f 116//70 111//69 26//39 172//71
f 120//70 126//72 39//54 105//63
f 130//73 128//5 37//8 41//47
f 46//55 127//74 130//73 41//47
f 39//54 126//72 127//74 46//55
f 151//75 16//23 13//7 150//6
f 154//76 152//4 14//3 20//26
f 154//76 20//26 16//23 151//75
f 5//15 164//77 163//78 1//12
f 10//22 166//79 164//77 5//15
f 3//11 165//10 166//79 10//22
f 172//71 26//39 32//37 173//80
f 173//80 32//37 28//34 175//81
f 175//81 28//34 25//33 174//82
f 99//56 107//65 38//50 15//31
f 27//43 2//18 8//16 34//44
f 34//44 8//16 4//13 29//36
f 29//36 4//13 1//12 25//33
f 109//66 101//59 2//18 27//43
f 15//31 38//50 44//48 22//32
f 22//32 44//48 40//45 17//25
f 17//25 40//45 37//8 13//7
f 1//12 163//78 174//82 25//33
f 98//58 19//28 14//3 97//2
usemtl Rubber.001
f 113//1 121//1 148//83 155//84
f 117//70 119//70 132//85 179//86
f 156//87 147//88 124//89 168//90
f 180//91 131//92 140//93 192//94
f 191//95 113//1 114//1 193//96
f 113//1 155//84 158//97 114//1
f 114//1 158//97 165//10 115//1
f 193//96 114//1 115//1 196//98
f 169//99 118//70 116//70 172//71
f 167//100 117//70 118//70 169//99
f 118//70 117//70 179//86 186//101
f 118//70 186//101 183//102 116//70
f 126//72 120//70 119//70 123//103
f 120//70 136//104 132//85 119//70
f 142//105 122//1 121//1 139//106
f 122//1 152//4 148//83 121//1
f 123//103 125//107 127//74 126//72
f 125//107 129//108 130//73 127//74
f 124//89 128//5 130//73 129//108
f 131//92 133//109 135//110 134//111
f 133//109 137//112 138//113 135//110
f 132//85 136//104 138//113 137//112
f 139//106 141//114 143//115 142//105
f 141//114 145//116 146//117 143//115
f 140//93 144//118 146//117 145//116
f 147//88 149//119 151//75 150//6
f 149//119 153//120 154//76 151//75
f 148//83 152//4 154//76 153//120
f 155//84 157//121 159//122 158//97
f 157//121 161//123 162//124 159//122
f 156//87 160//125 162//124 161//123
f 160//125 163//78 164//77 162//124
f 165//10 158//97 159//122 166//79
f 159//122 162//124 164//77 166//79
f 167//100 169//99 171//126 170//127
f 169//99 172//71 173//80 171//126
f 174//82 177//128 178//129 175//81
f 168//90 176//130 178//129 177//128
f 176//130 170//127 171//126 178//129
f 171//126 173//80 175//81 178//129
f 183//102 186//101 187//131 184//132
f 179//86 185//133 187//131 186//101
f 185//133 189//134 190//135 187//131
f 180//91 188//136 190//135 189//134
f 188//136 181//137 182//138 190//135
f 182//138 184//132 187//131 190//135
f 191//95 193//96 195//139 194//140
f 193//96 196//98 197//141 195//139
f 198//142 201//143 202//144 199//145
f 192//94 200//146 202//144 201//143
f 200//146 194//140 195//139 202//144
f 195//139 197//141 199//145 202//144
f 113//1 191//95 139//106 121//1
f 119//70 117//70 167//100 123//103
f 155//84 148//83 153//120 157//121
f 157//121 153//120 149//119 161//123
f 161//123 149//119 147//88 156//87
f 134//111 144//118 140//93 131//92
f 150//6 128//5 124//89 147//88
f 123//103 167//100 170//127 125//107
f 125//107 170//127 176//130 129//108
f 129//108 176//130 168//90 124//89
f 131//92 180//91 189//134 133//109
f 133//109 189//134 185//133 137//112
f 137//112 185//133 179//86 132//85
f 139//106 191//95 194//140 141//114
f 141//114 194//140 200//146 145//116
f 145//116 200//146 192//94 140//93
f 156//87 168//90 177//128 160//125
f 160//125 177//128 174//82 163//78
f 180//91 192//94 201//143 188//136
f 188//136 201//143 198//142 181//137
usemtl Rubber
f 181//137 198//142 49//147 73//148
f 144//118 134//111 87//149 61//150
f 120//70 105//63 85//151 136//104
f 101//59 109//66 74//152 51//153
f 49//147 52//154 54//155 53//156
f 52//154 56//157 57//158 54//155
f 50//159 55//160 57//158 56//157
f 55//160 59//161 60//162 57//158
f 51//153 58//163 60//162 59//161
f 58//163 53//156 54//155 60//162
f 54//155 57//158 60//162
f 61//150 64//164 66//165 65//166
f 64//164 68//167 69//168 66//165
f 62//169 67//170 69//168 68//167
f 67//170 71//171 72//172 69//168
f 63//173 70//174 72//172 71//171
f 70//174 65//166 66//165 72//172
f 66//165 69//168 72//172
f 73//148 76//175 78//176 77//177
f 76//175 80//178 81//179 78//176
f 74//152 79//180 81//179 80//178
f 79//180 83//181 84//182 81//179
f 75//183 82//184 84//182 83//181
f 82//184 77//177 78//176 84//182
f 78//176 81//179 84//182
f 85//151 88//185 90//186 89//187
f 88//185 92//188 93//189 90//186
f 86//190 91//191 93//189 92//188
f 91//191 95//192 96//193 93//189
f 87//149 94//194 96//193 95//192
f 94//194 89//187 90//186 96//193
f 90//186 93//189 96//193
f 98//58 97//2 63//173 71//171
f 67//170 100//57 98//58 71//171
f 62//169 99//56 100//57 67//170
f 102//60 101//59 51//153 59//161
f 102//60 59//161 55//160 104//61
f 104//61 55//160 50//159 103//9
f 106//62 88//185 85//151 105//63
f 108//64 107//65 86//190 92//188
f 108//64 92//188 88//185 106//62
f 74//152 109//66 110//67 79//180
f 112//68 111//69 75//183 83//181
f 79//180 110//67 112//68 83//181
f 103//9 50//159 196//98 115//1
f 116//70 183//102 75//183 111//69
f 97//2 122//1 142//105 63//173
f 89//187 138//113 136//104 85//151
f 94//194 135//110 138//113 89//187
f 87//149 134//111 135//110 94//194
f 146//117 144//118 61//150 65//166
f 70//174 143//115 146//117 65//166
f 63//173 142//105 143//115 70//174
f 181//137 73//148 77//177 182//138
f 182//138 77//177 82//184 184//132
f 184//132 82//184 75//183 183//102
f 196//98 50//159 56//157 197//141
f 197//141 56//157 52//154 199//145
f 199//145 52//154 49//147 198//142
f 51//153 74//152 80//178 58//163
f 58//163 80//178 76//175 53//156
f 53//156 76//175 73//148 49//147
f 86//190 62//169 68//167 91//191
f 91//191 68//167 64//164 95//192
f 95//192 64//164 61//150 87//149
f 99//56 62//169 86//190 107//65
